<svg width="179" height="39" viewBox="0 0 179 39" fill="none" xmlns="http://www.w3.org/2000/svg">
<path d="M3.93096 15.4391L2.89531 16.4914L3.93096 17.5436L13.465 27.2301L14.4107 28.191L14.534 28.3162L15.4464 29.2432L21.164 35.0522L22.2331 36.1383L23.3021 35.0522L35.1353 23.0297L37.7945 25.7314L38.8636 26.8176L39.9326 25.7314L42.069 23.5609L43.1047 22.5086L42.069 21.4564L32.6232 11.8595L31.5541 10.7733L31.5541 10.7734L30.6125 9.81671L24.836 3.94779L23.7669 2.86165L22.6979 3.94779L10.8647 15.9703L8.20546 13.2686L7.13642 12.1824L6.06737 13.2686L3.93096 15.4391ZM18.7751 24.0073L18.6518 23.882L17.7395 22.9551L15.4828 20.6623L24.144 11.8626L26.338 14.0917L27.4071 15.1779L27.4071 15.1778L28.3487 16.1345L30.5172 18.3377L21.856 27.1374L19.7208 24.9681L18.7751 24.0073Z" stroke="#191C1F" stroke-width="3"/>
<path d="M69.5745 29.06V26.2182H64.6342V9.0564H56.3633V11.8981H61.3036V26.2182H56.3633V29.06H69.5745Z" fill="#191C1F"/>
<path d="M78.4454 14.1548C76.3638 14.1548 74.6985 14.8513 73.394 16.2722C72.0896 17.693 71.4235 19.5039 71.4235 21.7606C71.4235 24.0173 72.0896 25.8282 73.394 27.249C74.6985 28.6699 76.3638 29.3664 78.4454 29.3664C80.527 29.3664 82.2201 28.6699 83.5245 27.249C84.829 25.8282 85.4674 24.0173 85.4674 21.7606C85.4674 19.5039 84.829 17.693 83.5245 16.2722C82.2201 14.8513 80.527 14.1548 78.4454 14.1548ZM78.4454 16.9687C79.5834 16.9687 80.4715 17.3866 81.1376 18.2502C81.776 19.1139 82.109 20.284 82.109 21.7606C82.109 23.2372 81.776 24.4073 81.1376 25.271C80.4715 26.1346 79.5834 26.5525 78.4454 26.5525C77.3075 26.5525 76.4193 26.1346 75.781 25.271C75.1148 24.4073 74.7818 23.2372 74.7818 21.7606C74.7818 20.284 75.1148 19.1139 75.781 18.2502C76.4193 17.3866 77.3075 16.9687 78.4454 16.9687Z" fill="#191C1F"/>
<path d="M94.5751 29.3664C96.4624 29.3664 98.0167 28.9206 99.2657 28.0013C100.515 27.1097 101.125 25.9396 101.125 24.5187C101.125 23.7665 100.959 23.0979 100.598 22.5685C100.237 22.0392 99.682 21.5934 98.9604 21.2313C98.5995 21.0641 98.1832 20.9248 97.7114 20.7855C97.2396 20.6462 96.3237 20.4512 94.9082 20.1726C93.3817 19.8661 92.438 19.6154 92.0772 19.3646C91.6886 19.1417 91.4943 18.8353 91.4943 18.4731C91.4943 17.9995 91.7441 17.6094 92.216 17.303C92.6878 17.0244 93.3539 16.8851 94.1588 16.8851C95.1025 16.8851 95.9351 17.0522 96.6845 17.4144C97.4339 17.7766 98.0167 18.2781 98.4885 18.9467L100.931 16.9687C100.293 16.105 99.4044 15.4085 98.2665 14.907C97.1285 14.4055 95.8518 14.1548 94.4918 14.1548C92.6323 14.1548 91.1335 14.5727 89.9678 15.4364C88.8021 16.3 88.2193 17.4144 88.2193 18.7796C88.2193 19.9218 88.6078 20.8133 89.385 21.4541C90.1621 22.1228 91.5776 22.6243 93.6592 22.9586C94.5474 23.0979 95.1302 23.2093 95.4078 23.2372C95.6853 23.2929 95.9073 23.3486 96.1016 23.4043C96.7122 23.5436 97.1563 23.7387 97.4061 23.9615C97.6559 24.2123 97.7669 24.5187 97.7669 24.9366C97.7669 25.466 97.4894 25.856 96.9343 26.1625C96.3792 26.4689 95.6575 26.6361 94.7971 26.6361C93.798 26.6361 92.8543 26.4132 91.9662 25.9675C91.078 25.5496 90.3841 24.9645 89.8846 24.2401L87.2479 26.1625C87.9417 27.1376 88.9687 27.9177 90.2731 28.5027C91.5776 29.0878 93.0208 29.3664 94.5751 29.3664Z" fill="#191C1F"/>
<path d="M110.316 29.3664C112.203 29.3664 113.758 28.9206 115.006 28.0013C116.255 27.1097 116.866 25.9396 116.866 24.5187C116.866 23.7665 116.7 23.0979 116.339 22.5685C115.978 22.0392 115.423 21.5934 114.701 21.2313C114.34 21.0641 113.924 20.9248 113.452 20.7855C112.98 20.6462 112.065 20.4512 110.649 20.1726C109.123 19.8661 108.179 19.6154 107.818 19.3646C107.429 19.1417 107.235 18.8353 107.235 18.4731C107.235 17.9995 107.485 17.6094 107.957 17.303C108.429 17.0244 109.095 16.8851 109.9 16.8851C110.843 16.8851 111.676 17.0522 112.425 17.4144C113.175 17.7766 113.758 18.2781 114.229 18.9467L116.672 16.9687C116.033 16.105 115.145 15.4085 114.007 14.907C112.869 14.4055 111.593 14.1548 110.233 14.1548C108.373 14.1548 106.874 14.5727 105.709 15.4364C104.543 16.3 103.96 17.4144 103.96 18.7796C103.96 19.9218 104.349 20.8133 105.126 21.4541C105.903 22.1228 107.318 22.6243 109.4 22.9586C110.288 23.0979 110.871 23.2093 111.149 23.2372C111.426 23.2929 111.648 23.3486 111.842 23.4043C112.453 23.5436 112.897 23.7387 113.147 23.9615C113.397 24.2123 113.508 24.5187 113.508 24.9366C113.508 25.466 113.23 25.856 112.675 26.1625C112.12 26.4689 111.398 26.6361 110.538 26.6361C109.539 26.6361 108.595 26.4132 107.707 25.9675C106.819 25.5496 106.125 24.9645 105.625 24.2401L102.989 26.1625C103.683 27.1376 104.71 27.9177 106.014 28.5027C107.318 29.0878 108.762 29.3664 110.316 29.3664Z" fill="#191C1F"/>
<path d="M131.873 28.8703V26.0285H126.933V8.8667H118.662V11.7084H123.602V26.0285H118.662V28.8703H131.873Z" fill="#191C1F"/>
<path d="M141.017 29.3664C142.543 29.3664 143.875 29.0042 145.013 28.2799C146.151 27.5555 147.012 26.5525 147.539 25.271L144.736 24.1844C144.486 24.9366 144.042 25.4938 143.404 25.9117C142.765 26.3296 141.96 26.5247 141.044 26.5247C139.906 26.5247 138.963 26.1625 138.213 25.4381C137.464 24.7138 137.02 23.7387 136.881 22.485H147.622V21.3706C147.622 19.1975 147.012 17.4423 145.818 16.1329C144.597 14.8234 142.959 14.1548 140.878 14.1548C138.796 14.1548 137.048 14.8791 135.688 16.3279C134.328 17.7766 133.634 19.5875 133.634 21.7606C133.634 24.0173 134.328 25.8282 135.688 27.249C137.048 28.6699 138.824 29.3664 141.017 29.3664ZM140.878 16.9687C141.905 16.9687 142.737 17.2473 143.348 17.7766C143.931 18.3338 144.236 19.0582 144.264 19.9775H137.075C137.325 19.0024 137.769 18.2781 138.435 17.7487C139.102 17.2194 139.906 16.9687 140.878 16.9687Z" fill="#191C1F"/>
<path d="M156.787 29.3664C158.675 29.3664 160.229 28.9206 161.478 28.0013C162.727 27.1097 163.338 25.9396 163.338 24.5187C163.338 23.7665 163.171 23.0979 162.81 22.5685C162.449 22.0392 161.894 21.5934 161.173 21.2313C160.812 21.0641 160.396 20.9248 159.924 20.7855C159.452 20.6462 158.536 20.4512 157.12 20.1726C155.594 19.8661 154.65 19.6154 154.289 19.3646C153.901 19.1417 153.707 18.8353 153.707 18.4731C153.707 17.9995 153.956 17.6094 154.428 17.303C154.9 17.0244 155.566 16.8851 156.371 16.8851C157.315 16.8851 158.147 17.0522 158.897 17.4144C159.646 17.7766 160.229 18.2781 160.701 18.9467L163.143 16.9687C162.505 16.105 161.617 15.4085 160.479 14.907C159.341 14.4055 158.064 14.1548 156.704 14.1548C154.845 14.1548 153.346 14.5727 152.18 15.4364C151.014 16.3 150.432 17.4144 150.432 18.7796C150.432 19.9218 150.82 20.8133 151.597 21.4541C152.374 22.1228 153.79 22.6243 155.871 22.9586C156.76 23.0979 157.342 23.2093 157.62 23.2372C157.898 23.2929 158.12 23.3486 158.314 23.4043C158.925 23.5436 159.369 23.7387 159.618 23.9615C159.868 24.2123 159.979 24.5187 159.979 24.9366C159.979 25.466 159.702 25.856 159.147 26.1625C158.591 26.4689 157.87 26.6361 157.009 26.6361C156.01 26.6361 155.067 26.4132 154.178 25.9675C153.29 25.5496 152.596 24.9645 152.097 24.2401L149.46 26.1625C150.154 27.1376 151.181 27.9177 152.485 28.5027C153.79 29.0878 155.233 29.3664 156.787 29.3664Z" fill="#191C1F"/>
<path d="M172.449 29.3664C174.337 29.3664 175.891 28.9206 177.14 28.0013C178.389 27.1097 179 25.9396 179 24.5187C179 23.7665 178.833 23.0979 178.472 22.5685C178.111 22.0392 177.556 21.5934 176.835 21.2313C176.474 21.0641 176.058 20.9248 175.586 20.7855C175.114 20.6462 174.198 20.4512 172.782 20.1726C171.256 19.8661 170.312 19.6154 169.951 19.3646C169.563 19.1417 169.369 18.8353 169.369 18.4731C169.369 17.9995 169.618 17.6094 170.09 17.303C170.562 17.0244 171.228 16.8851 172.033 16.8851C172.977 16.8851 173.809 17.0522 174.559 17.4144C175.308 17.7766 175.891 18.2781 176.363 18.9467L178.805 16.9687C178.167 16.105 177.279 15.4085 176.141 14.907C175.003 14.4055 173.726 14.1548 172.366 14.1548C170.507 14.1548 169.008 14.5727 167.842 15.4364C166.676 16.3 166.094 17.4144 166.094 18.7796C166.094 19.9218 166.482 20.8133 167.259 21.4541C168.036 22.1228 169.452 22.6243 171.533 22.9586C172.422 23.0979 173.004 23.2093 173.282 23.2372C173.56 23.2929 173.782 23.3486 173.976 23.4043C174.586 23.5436 175.031 23.7387 175.28 23.9615C175.53 24.2123 175.641 24.5187 175.641 24.9366C175.641 25.466 175.364 25.856 174.809 26.1625C174.253 26.4689 173.532 26.6361 172.671 26.6361C171.672 26.6361 170.729 26.4132 169.84 25.9675C168.952 25.5496 168.258 24.9645 167.759 24.2401L165.122 26.1625C165.816 27.1376 166.843 27.9177 168.147 28.5027C169.452 29.0878 170.895 29.3664 172.449 29.3664Z" fill="#191C1F"/>
</svg>
